# xmcd
# 
# Track frame offsets:
#     150
#     17300
#     34620
#     59880
#     85429
#     98076
#     135559
#     158894
#     177651
#     199802
#     213808
#     240535
#     274466
#     286114
#     298062
#     314816
# 
# Disc length: 4426
# 
# Revision: 4
# Processed by: cddbd v1.5.2PL0 Copyright (c) Steve Scherf et al.
# Submitted via: fre:ac v1.1beta1pre4
# 
DISCID=f2114810
DTITLE=Kult - Tata 2
DYEAR=1996
DGENRE=Rock
TTITLE0=Jesli Zechcesz Odejsc - Odejdz
TTITLE1=Kochaj Mnie, A Bede Twoja
TTITLE2=Smierc Poety
TTITLE3=Nie Doroslem Do Swych Lat
TTITLE4=Ty Albo Zadna
TTITLE5=Samotni Ludzie
TTITLE6=Zastanowcie Sie Sami
TTITLE7=Gwiazda Szeryfa
TTITLE8=Ballada O Dwoch Siostrach
TTITLE9=Kolysanka Stalinowska
TTITLE10=Latajacy Holender
TTITLE11=A Gdy Bede Umieral
TTITLE12=Prowokator
TTITLE13=Dolina
TTITLE14=Marianna (Inaczej Niz Na 1)
TTITLE15=Kochaj Mnie, A Bede Twoja (Wersja Bez V.V.)
EXTD=YEAR: 1996
EXTT0=
EXTT1=
EXTT2=
EXTT3=
EXTT4=
EXTT5=
EXTT6=
EXTT7=
EXTT8=
EXTT9=
EXTT10=
EXTT11=
EXTT12=
EXTT13=
EXTT14=
EXTT15=
PLAYORDER=
